<svg xmlns="http://www.w3.org/2000/svg" viewBox="0 0 47.5 47.5" style="enable-background:new 0 0 47.5 47.5" xml:space="preserve"><defs><clipPath id="a" clipPathUnits="userSpaceOnUse"><path d="M0 38h38V0H0v38Z"/></clipPath></defs><g clip-path="url(#a)" transform="matrix(1.25 0 0 -1.25 0 47.5)"><path style="fill:#e1e8ed;fill-opacity:1;fill-rule:nonzero;stroke:none" d="M0 0a2 2 0 0 1-4 0s-.011-3.285-3-3.894V-1c0 6.075-4.925 11-11 11S-29 5.075-29-1v-3.237c-5.222-1.569-7-7.994-7-11.763a2 2 0 0 1 4 0s.002 3.54 3.336 3.958C-28.162-16.883-27.046-22-25-22h1c4 0 3-2 7-2s3 2 6 2 2.395-2 6-2a3 3 0 0 1 3 3c0 .675-2.274 4.994-3.755 9.268C-.019-10.348 0-3.58 0 0" transform="translate(37 26)"/><path style="fill:#292f33;fill-opacity:1;fill-rule:nonzero;stroke:none" d="M0 0a2 2 0 1 0-4.001.001A2 2 0 0 0 0 0" transform="translate(16 25)"/><path style="fill:#292f33;fill-opacity:1;fill-rule:nonzero;stroke:none" d="M0 0a4 4 0 1 0-8 0 4 4 0 0 0 8 0" transform="translate(28 25)"/><path style="fill:#9aaab4;fill-opacity:1;fill-rule:nonzero;stroke:none" d="M0 0a2 2 0 1 0-4.001.001A2 2 0 0 0 0 0" transform="translate(26 24)"/><path style="fill:#292f33;fill-opacity:1;fill-rule:nonzero;stroke:none" d="M0 0c2.65-1.987 3.591-5.211 2.1-7.199-1.492-1.989-4.849-1.989-7.5 0C-8.051-5.212-8.991-1.988-7.5 0-6.009 1.989-2.651 1.988 0 0" transform="translate(23.192 17.509)"/></g></svg>
