<?xml version="1.0" standalone="no"?>
<!DOCTYPE svg PUBLIC "-//W3C//DTD SVG 20010904//EN"
 "http://www.w3.org/TR/2001/REC-SVG-20010904/DTD/svg10.dtd">
<svg version="1.0" xmlns="http://www.w3.org/2000/svg"
 width="700.000000pt" height="700.000000pt" viewBox="0 0 700.000000 700.000000"
 preserveAspectRatio="xMidYMid meet">
<metadata>
Created by potrace 1.14, written by Peter Selinger 2001-2017
</metadata>
<g transform="translate(0.000000,700.000000) scale(0.100000,-0.100000)"
fill="#000000" stroke="none">
<path d="M3240 6614 c-52 -7 -106 -15 -120 -18 -45 -7 -254 -65 -310 -86 -30
-12 -64 -24 -75 -27 -11 -4 -74 -33 -139 -66 -561 -280 -958 -799 -1081 -1412
-35 -174 -39 -241 -39 -635 -1 -224 -5 -358 -11 -363 -5 -4 -28 -12 -50 -18
-115 -32 -352 -168 -470 -271 -237 -206 -420 -479 -560 -833 -35 -91 -96 -280
-110 -346 -2 -9 -13 -59 -24 -110 -11 -52 -22 -107 -25 -124 -2 -16 -8 -50
-12 -75 -4 -25 -8 -56 -9 -70 -1 -14 -5 -50 -9 -80 -13 -106 -13 -276 1 -331
58 -225 316 -340 523 -233 81 41 147 115 175 195 17 45 21 70 30 177 7 84 20
142 52 232 82 230 240 376 468 432 47 12 87 19 89 17 2 -2 7 -35 10 -74 4 -38
9 -81 10 -95 2 -14 7 -48 10 -75 4 -28 9 -66 12 -85 2 -19 6 -48 9 -65 3 -16
7 -48 10 -70 3 -22 7 -51 10 -65 2 -13 7 -42 11 -65 3 -22 10 -62 15 -90 6
-27 12 -61 15 -75 17 -93 30 -153 65 -290 108 -424 239 -676 393 -754 52 -26
58 -27 267 -31 118 -3 228 -7 244 -10 90 -18 166 -38 215 -57 53 -21 80 -36
282 -160 91 -55 207 -102 284 -114 22 -3 59 -10 84 -14 57 -11 349 -10 415 0
92 15 115 20 163 36 88 29 167 74 262 149 102 82 202 135 290 156 57 13 272
17 325 6 17 -3 43 -9 58 -12 86 -18 188 -74 353 -194 144 -105 315 -152 539
-147 175 4 248 30 365 127 110 92 186 242 194 384 4 76 -27 164 -169 480 -243
541 -530 1245 -514 1259 2 2 42 16 89 31 430 140 711 462 853 980 26 91 52
217 62 290 3 22 7 49 10 60 2 11 7 56 10 100 4 44 8 86 10 92 8 23 19 317 19
498 1 167 -1 185 -24 245 -33 88 -120 177 -204 209 -151 56 -304 21 -409 -93
-64 -70 -92 -143 -101 -271 -7 -94 -12 -121 -33 -195 -67 -235 -226 -409 -435
-475 -44 -14 -80 -25 -81 -25 -1 0 -2 150 -3 333 0 182 -4 366 -8 407 -8 72
-10 86 -21 140 -2 14 -7 41 -10 60 -12 72 -56 224 -95 323 -154 394 -390 690
-757 952 -185 132 -524 273 -738 308 -48 8 -98 17 -130 23 -67 13 -431 12
-525 -2z"/>
</g>
</svg>
